<?xml version="1.0" encoding="UTF-8"?>
<svg id="Layer_1" data-name="Layer 1" xmlns="http://www.w3.org/2000/svg" viewBox="0 0 820.83 181.4" width="200">
  <defs>
    <style>
      .cls-1 {
        fill: #fee745;
      }

      .cls-1, .cls-2 {
        stroke-width: 0px;
      }

      .cls-2 {
        fill: #fff;
      }
    </style>
  </defs>
  <path class="cls-1" d="M67.2,103.83l-18.19-23.75v76.04c0,15.92-11.37,24.51-24.25,24.51S0,172.3,0,156.13V27.03C0,10.61,12.38,1.01,25.77,1.01c8.84,0,18.19,4.29,24.51,12.38l34.86,44.72L120.26,13.39c6.32-8.08,15.41-12.38,24.25-12.38,13.39,0,26.02,9.6,26.02,26.02v129.1c0,16.17-11.37,24.51-24.76,24.51s-24.25-8.34-24.25-24.51v-76.04l-17.94,23.75c-5.81,7.83-11.62,10.36-18.44,10.36s-12.63-3.54-17.94-10.36Z"/>
  <path class="cls-1" d="M210.45,179.63c-16.17,0-24.25-8.34-24.25-24.76V26.53c0-16.42,8.08-24.76,24.25-24.76h83.37c15.41,0,24.51,11.37,24.51,24.76s-9.09,24.76-24.51,24.76h-58.86v16.93h49.01c14.15,0,22.48,10.36,22.48,22.48s-8.34,22.49-22.48,22.49h-49.01v17.18h58.86c15.41,0,24.51,11.12,24.51,24.51s-9.09,24.76-24.51,24.76h-83.37Z"/>
  <path class="cls-2" d="M339.3,179.63c-4.29,0-6.32-2.53-6.32-7.33v-49.26c0-36.63,14.4-52.3,49.77-52.3h39.66c8.34,0,12.63-3.28,12.63-9.6s-4.29-9.85-12.63-9.85h-60.89c-15.41,0-23.5-8.34-23.75-24.76v-1.01c0-15.92,7.83-23.75,23.5-23.75h60.89c37.14,0,55.83,18.95,55.83,57.1s-11.62,53.31-49.01,53.31h-41.69c-7.83,0-11.62,3.03-11.62,9.35l.51,8.84h76.04c18.44,0,25.77,8.08,25.77,24.51s-8.59,24.76-26.02,24.76h-112.68Z"/>
  <path class="cls-1" d="M579.81,0c50.28,0,90.95,40.42,90.95,90.7s-40.67,90.7-90.95,90.7-90.7-40.42-90.7-90.7S529.53,0,579.81,0ZM580.06,132.38c22.74,0,41.43-17.94,41.43-40.93s-18.7-41.43-41.43-41.43-41.18,18.44-41.18,41.43,18.44,40.93,41.18,40.93Z"/>
  <path class="cls-1" d="M773.84,24.25c0-15.16,10.61-23.24,23.75-23.24,12.38,0,23.24,8.08,23.24,23.24v131.88c0,15.41-11.37,24.51-23.24,24.51-8.08,0-16.17-3.79-21.98-12.63l-45.98-68.46v57.85c0,15.16-10.61,23.24-23.75,23.24-12.38,0-22.99-8.08-22.99-23.24V25.26c0-15.16,11.12-24.25,22.99-24.25,8.34,0,16.42,3.54,22.23,12.38l45.73,68.47V24.25Z"/>
</svg>
